# Blender v2.92.0 OBJ File: 'arrowk2.blend'
# www.blender.org
mtllib arrowk2.mtl
o Arrow_Cube
v 0.432119 -0.198492 -0.432119
v 0.432119 0.198492 -0.432119
v 0.432119 -0.198492 0.432119
v 0.432119 0.198492 0.432119
v -0.432119 -0.143602 -0.312622
v -0.432119 0.143602 -0.312622
v -0.432119 -0.143602 0.312622
v -0.432119 0.143602 0.312622
v 0.432119 -0.198492 -0.432119
v 0.432119 0.198492 -0.432119
v 0.432119 -0.198492 0.432119
v 0.432119 0.198492 0.432119
v 0.821875 -0.100426 -0.020378
v 0.821875 -0.100426 0.020378
vt 0.625000 0.500000
vt 0.625000 0.750000
vt 0.875000 0.750000
vt 0.875000 0.500000
vt 0.375000 0.750000
vt 0.375000 1.000000
vt 0.625000 1.000000
vt 0.375000 0.000000
vt 0.375000 0.250000
vt 0.625000 0.250000
vt 0.625000 0.000000
vt 0.125000 0.500000
vt 0.125000 0.750000
vt 0.375000 0.500000
vt 0.625000 0.750000
vt 0.375000 0.750000
vt 0.375000 0.500000
vt 0.625000 0.500000
vt 0.625000 0.500000
vt 0.625000 0.750000
vn -0.0634 -0.9980 0.0000
vn -0.1370 0.0000 0.9906
vn -1.0000 0.0000 0.0000
vn -0.0634 0.9980 0.0000
vn 0.0000 0.0000 1.0000
vn -0.1370 0.0000 -0.9906
vn 0.2440 -0.9698 0.0000
g Arrow_Cube_matgreen
usemtl matgreen
s off
f 1/1/1 3/2/1 7/3/1 5/4/1
f 4/5/2 8/6/2 7/7/2 3/2/2
f 8/8/3 6/9/3 5/10/3 7/11/3
f 6/12/4 8/13/4 4/5/4 2/14/4
f 3/2/5 11/15/5 12/16/5 4/5/5
f 6/9/6 2/14/6 1/1/6 5/10/6
f 2/14/5 10/17/5 9/18/5 1/1/5
f 4/5/5 12/16/5 10/17/5 2/14/5
f 1/1/5 9/18/5 11/15/5 3/2/5
f 9/18/7 13/19/7 14/20/7 11/15/7
o ArrowHead_Cube.Front
v 0.432119 -0.198492 -0.432119
v 0.432119 0.198492 -0.432119
v 0.432119 -0.198492 0.432119
v 0.432119 0.198492 0.432119
v 0.821875 -0.100426 -0.020378
v 0.821875 0.100426 -0.020378
v 0.821875 -0.100426 0.020378
v 0.821875 0.100426 0.020378
vt 0.375000 0.500000
vt 0.375000 0.500000
vt 0.625000 0.500000
vt 0.625000 0.500000
vt 0.375000 0.750000
vt 0.625000 0.750000
vt 0.375000 0.750000
vt 0.625000 0.750000
vn 0.7262 0.0000 -0.6875
vn 1.0000 0.0000 0.0000
vn 0.2440 0.9698 0.0000
vn 0.7262 0.0000 0.6875
g ArrowHead_Cube.Front_matred
usemtl matred
s off
f 16/21/8 20/22/8 19/23/8 15/24/8
f 20/22/9 22/25/9 21/26/9 19/23/9
f 18/27/10 22/25/10 20/22/10 16/21/10
f 17/28/11 21/26/11 22/25/11 18/27/11
